{
	"asset":{
		"generator":"Khronos glTF Blender I/O v4.0.44",
		"version":"2.0"
	},
	"scene":0,
	"scenes":[
		{
			"name":"Scene",
			"nodes":[
				0
			]
		}
	],
	"nodes":[
		{
			"mesh":0,
			"name":"Flamingp"
		}
	],
	"materials":[
		{
			"doubleSided":true,
			"name":"Flamingo",
			"normalTexture":{
				"index":0
			},
			"pbrMetallicRoughness":{
				"baseColorTexture":{
					"index":1
				},
				"metallicFactor":0,
				"roughnessFactor":0.30000001192092896
			}
		}
	],
	"meshes":[
		{
			"name":"SM_Flamingo_01a",
			"primitives":[
				{
					"attributes":{
						"COLOR_0":0,
						"POSITION":1,
						"NORMAL":2,
						"TEXCOORD_0":3,
						"TEXCOORD_1":4
					},
					"indices":5,
					"material":0
				}
			]
		}
	],
	"textures":[
		{
			"sampler":0,
			"source":0
		},
		{
			"sampler":0,
			"source":1
		}
	],
	"images":[
		{
			"mimeType":"image/png",
			"name":"T_Flamingo_NR",
			"uri":"T_Flamingo_NR.png"
		},
		{
			"mimeType":"image/png",
			"name":"T_Flamingo_DF",
			"uri":"T_Flamingo_DF.png"
		}
	],
	"accessors":[
		{
			"bufferView":0,
			"componentType":5123,
			"count":2271,
			"normalized":true,
			"type":"VEC4"
		},
		{
			"bufferView":1,
			"componentType":5126,
			"count":2271,
			"max":[
				0.40610891580581665,
				0.6470103859901428,
				0.41615960001945496
			],
			"min":[
				-0.38827699422836304,
				-0.0016350001096725464,
				-0.3782368004322052
			],
			"type":"VEC3"
		},
		{
			"bufferView":2,
			"componentType":5126,
			"count":2271,
			"type":"VEC3"
		},
		{
			"bufferView":3,
			"componentType":5126,
			"count":2271,
			"type":"VEC2"
		},
		{
			"bufferView":4,
			"componentType":5126,
			"count":2271,
			"type":"VEC2"
		},
		{
			"bufferView":5,
			"componentType":5123,
			"count":12462,
			"type":"SCALAR"
		}
	],
	"bufferViews":[
		{
			"buffer":0,
			"byteLength":18168,
			"byteOffset":0,
			"target":34962
		},
		{
			"buffer":0,
			"byteLength":27252,
			"byteOffset":18168,
			"target":34962
		},
		{
			"buffer":0,
			"byteLength":27252,
			"byteOffset":45420,
			"target":34962
		},
		{
			"buffer":0,
			"byteLength":18168,
			"byteOffset":72672,
			"target":34962
		},
		{
			"buffer":0,
			"byteLength":18168,
			"byteOffset":90840,
			"target":34962
		},
		{
			"buffer":0,
			"byteLength":24924,
			"byteOffset":109008,
			"target":34963
		}
	],
	"samplers":[
		{
			"magFilter":9729,
			"minFilter":9987
		}
	],
	"buffers":[
		{
			"byteLength":133932,
			"uri":"Flamingo.bin"
		}
	]
}
