{
	"asset":{
		"generator":"Khronos glTF Blender I/O v4.0.44",
		"version":"2.0"
	},
	"scene":0,
	"scenes":[
		{
			"name":"Scene",
			"nodes":[
				0,
				1,
				2,
				3,
				4,
				5
			]
		}
	],
	"nodes":[
		{
			"mesh":0,
			"name":"Telhado"
		},
		{
			"mesh":1,
			"name":"Predio"
		},
		{
			"mesh":2,
			"name":"Peitoril"
		},
		{
			"mesh":3,
			"name":"GuardaCorpo"
		},
		{
			"mesh":4,
			"name":"Esquadrias"
		},
		{
			"mesh":5,
			"name":"CaixaDagua"
		}
	],
	"materials":[
		{
			"doubleSided":true,
			"name":"Metal",
			"pbrMetallicRoughness":{
				"baseColorFactor":[
					0.800000011920929,
					0.800000011920929,
					0.800000011920929,
					1
				],
				"roughnessFactor":0.20000000298023224
			}
		},
		{
			"doubleSided":true,
			"name":"ParedeBranca",
			"pbrMetallicRoughness":{
				"baseColorFactor":[
					0.800000011920929,
					0.800000011920929,
					0.800000011920929,
					1
				],
				"metallicFactor":0,
				"roughnessFactor":0.5
			}
		},
		{
			"doubleSided":true,
			"name":"Concreto",
			"pbrMetallicRoughness":{
				"baseColorFactor":[
					0.17747464776039124,
					0.17747464776039124,
					0.17747464776039124,
					1
				],
				"metallicFactor":0,
				"roughnessFactor":0.5
			}
		},
		{
			"doubleSided":true,
			"name":"ConcretoRolha",
			"pbrMetallicRoughness":{
				"baseColorFactor":[
					0.8000000715255737,
					0.4822233021259308,
					0.18059347569942474,
					1
				],
				"metallicFactor":0,
				"roughnessFactor":0.5
			}
		},
		{
			"doubleSided":true,
			"name":"DivisaAndar",
			"pbrMetallicRoughness":{
				"baseColorFactor":[
					0.005604460835456848,
					0.005604460835456848,
					0.005604460835456848,
					1
				],
				"metallicFactor":0,
				"roughnessFactor":0.5
			}
		},
		{
			"doubleSided":true,
			"name":"Aqualux",
			"normalTexture":{
				"index":0
			},
			"pbrMetallicRoughness":{
				"baseColorTexture":{
					"index":1
				},
				"metallicRoughnessTexture":{
					"index":2
				}
			}
		},
		{
			"doubleSided":true,
			"name":"MetalEscuro",
			"pbrMetallicRoughness":{
				"baseColorFactor":[
					0.007627156097441912,
					0.007627156097441912,
					0.007627156097441912,
					1
				],
				"roughnessFactor":0.20000000298023224
			}
		},
		{
			"alphaMode":"BLEND",
			"doubleSided":true,
			"name":"Vidro",
			"pbrMetallicRoughness":{
				"baseColorFactor":[
					0.800000011920929,
					0.800000011920929,
					0.800000011920929,
					0.20000000298023224
				],
				"roughnessFactor":0
			}
		},
		{
			"doubleSided":true,
			"name":"MetalCobre",
			"pbrMetallicRoughness":{
				"baseColorFactor":[
					0.8000000715255737,
					0.36328279972076416,
					0.10954904556274414,
					1
				],
				"roughnessFactor":0.30000001192092896
			}
		},
		{
			"doubleSided":true,
			"name":"CaixaDagua",
			"pbrMetallicRoughness":{
				"baseColorFactor":[
					0.041122566908597946,
					0.12951421737670898,
					0.6618602275848389,
					1
				],
				"metallicFactor":0,
				"roughnessFactor":0.4000000059604645
			}
		}
	],
	"meshes":[
		{
			"name":"ParedeEscada.014",
			"primitives":[
				{
					"attributes":{
						"POSITION":0,
						"NORMAL":1,
						"TEXCOORD_0":2
					},
					"indices":3,
					"material":0
				}
			]
		},
		{
			"name":"ParedeEscada",
			"primitives":[
				{
					"attributes":{
						"POSITION":4,
						"NORMAL":5,
						"TEXCOORD_0":6
					},
					"indices":7,
					"material":1
				},
				{
					"attributes":{
						"POSITION":8,
						"NORMAL":9,
						"TEXCOORD_0":10
					},
					"indices":11,
					"material":2
				},
				{
					"attributes":{
						"POSITION":12,
						"NORMAL":13,
						"TEXCOORD_0":14
					},
					"indices":15,
					"material":3
				},
				{
					"attributes":{
						"POSITION":16,
						"NORMAL":17,
						"TEXCOORD_0":18
					},
					"indices":19,
					"material":4
				}
			]
		},
		{
			"name":"GuardaCorpor01.002",
			"primitives":[
				{
					"attributes":{
						"POSITION":20,
						"NORMAL":21,
						"TEXCOORD_0":22
					},
					"indices":23,
					"material":5
				}
			]
		},
		{
			"name":"Plane.008",
			"primitives":[
				{
					"attributes":{
						"POSITION":24,
						"NORMAL":25,
						"TEXCOORD_0":26
					},
					"indices":27,
					"material":2
				},
				{
					"attributes":{
						"POSITION":28,
						"NORMAL":29,
						"TEXCOORD_0":30
					},
					"indices":31,
					"material":6
				}
			]
		},
		{
			"name":"Janela01.004",
			"primitives":[
				{
					"attributes":{
						"POSITION":32,
						"NORMAL":33,
						"TEXCOORD_0":34,
						"TEXCOORD_1":35,
						"TEXCOORD_2":36
					},
					"indices":37,
					"material":7
				},
				{
					"attributes":{
						"POSITION":38,
						"NORMAL":39,
						"TEXCOORD_0":40,
						"TEXCOORD_1":41,
						"TEXCOORD_2":42
					},
					"indices":43,
					"material":8
				}
			]
		},
		{
			"name":"Circle.001",
			"primitives":[
				{
					"attributes":{
						"POSITION":44,
						"NORMAL":45,
						"TEXCOORD_0":46
					},
					"indices":47,
					"material":9
				}
			]
		}
	],
	"textures":[
		{
			"sampler":0,
			"source":0
		},
		{
			"sampler":0,
			"source":1
		},
		{
			"sampler":0,
			"source":2
		}
	],
	"images":[
		{
			"mimeType":"image/png",
			"name":"T_Granite_Aqualux_NR",
			"uri":"T_Granite_Aqualux_NR.png"
		},
		{
			"mimeType":"image/png",
			"name":"T_Granite_Aqualux_DF",
			"uri":"T_Granite_Aqualux_DF.png"
		},
		{
			"mimeType":"image/png",
			"name":"T_Granite_Aqualux_MR",
			"uri":"T_Granite_Aqualux_MR.png"
		}
	],
	"accessors":[
		{
			"bufferView":0,
			"componentType":5126,
			"count":599,
			"max":[
				0.2367534041404724,
				0.2345937192440033,
				0.06754183024168015
			],
			"min":[
				-0.24324704706668854,
				0.17079371213912964,
				-0.06715871393680573
			],
			"type":"VEC3"
		},
		{
			"bufferView":1,
			"componentType":5126,
			"count":599,
			"type":"VEC3"
		},
		{
			"bufferView":2,
			"componentType":5126,
			"count":599,
			"type":"VEC2"
		},
		{
			"bufferView":3,
			"componentType":5123,
			"count":1083,
			"type":"SCALAR"
		},
		{
			"bufferView":4,
			"componentType":5126,
			"count":38626,
			"max":[
				0.2382533997297287,
				0.2720937132835388,
				0.06904158741235733
			],
			"min":[
				-0.2447466254234314,
				-0.00010624527931213379,
				-0.0686584934592247
			],
			"type":"VEC3"
		},
		{
			"bufferView":5,
			"componentType":5126,
			"count":38626,
			"type":"VEC3"
		},
		{
			"bufferView":6,
			"componentType":5126,
			"count":38626,
			"type":"VEC2"
		},
		{
			"bufferView":7,
			"componentType":5123,
			"count":76368,
			"type":"SCALAR"
		},
		{
			"bufferView":8,
			"componentType":5126,
			"count":2893,
			"max":[
				0.14075340330600739,
				0.27209368348121643,
				0.06354158371686935
			],
			"min":[
				-0.14724671840667725,
				-0.00010624527931213379,
				-0.06315839290618896
			],
			"type":"VEC3"
		},
		{
			"bufferView":9,
			"componentType":5126,
			"count":2893,
			"type":"VEC3"
		},
		{
			"bufferView":10,
			"componentType":5126,
			"count":2893,
			"type":"VEC2"
		},
		{
			"bufferView":11,
			"componentType":5123,
			"count":5781,
			"type":"SCALAR"
		},
		{
			"bufferView":12,
			"componentType":5126,
			"count":3635,
			"max":[
				0.17025336623191833,
				0.2720937132835388,
				0.06904158741235733
			],
			"min":[
				-0.17674671113491058,
				-0.00010622292757034302,
				-0.0686584934592247
			],
			"type":"VEC3"
		},
		{
			"bufferView":13,
			"componentType":5126,
			"count":3635,
			"type":"VEC3"
		},
		{
			"bufferView":14,
			"componentType":5126,
			"count":3635,
			"type":"VEC2"
		},
		{
			"bufferView":15,
			"componentType":5123,
			"count":5976,
			"type":"SCALAR"
		},
		{
			"bufferView":16,
			"componentType":5126,
			"count":1400,
			"max":[
				0.2382533997297287,
				0.22709375619888306,
				0.06904158741235733
			],
			"min":[
				-0.2447466254234314,
				0.027793772518634796,
				-0.06865841895341873
			],
			"type":"VEC3"
		},
		{
			"bufferView":17,
			"componentType":5126,
			"count":1400,
			"type":"VEC3"
		},
		{
			"bufferView":18,
			"componentType":5126,
			"count":1400,
			"type":"VEC2"
		},
		{
			"bufferView":19,
			"componentType":5123,
			"count":2502,
			"type":"SCALAR"
		},
		{
			"bufferView":20,
			"componentType":5126,
			"count":8544,
			"max":[
				0.23845340311527252,
				0.2108936905860901,
				0.06924159079790115
			],
			"min":[
				-0.24494662880897522,
				0.007893778383731842,
				-0.06885841488838196
			],
			"type":"VEC3"
		},
		{
			"bufferView":21,
			"componentType":5126,
			"count":8544,
			"type":"VEC3"
		},
		{
			"bufferView":22,
			"componentType":5126,
			"count":8544,
			"type":"VEC2"
		},
		{
			"bufferView":23,
			"componentType":5123,
			"count":12816,
			"type":"SCALAR"
		},
		{
			"bufferView":24,
			"componentType":5126,
			"count":624,
			"max":[
				0.14075340330600739,
				0.19819366931915283,
				0.06354159861803055
			],
			"min":[
				-0.14724662899971008,
				0.026493772864341736,
				-0.06315840035676956
			],
			"type":"VEC3"
		},
		{
			"bufferView":25,
			"componentType":5126,
			"count":624,
			"type":"VEC3"
		},
		{
			"bufferView":26,
			"componentType":5126,
			"count":624,
			"type":"VEC2"
		},
		{
			"bufferView":27,
			"componentType":5123,
			"count":936,
			"type":"SCALAR"
		},
		{
			"bufferView":28,
			"componentType":5126,
			"count":21072,
			"max":[
				0.14075340330600739,
				0.20719367265701294,
				0.06304160505533218
			],
			"min":[
				-0.14724662899971008,
				0.027793772518634796,
				-0.0626583993434906
			],
			"type":"VEC3"
		},
		{
			"bufferView":29,
			"componentType":5126,
			"count":21072,
			"type":"VEC3"
		},
		{
			"bufferView":30,
			"componentType":5126,
			"count":21072,
			"type":"VEC2"
		},
		{
			"bufferView":31,
			"componentType":5123,
			"count":32544,
			"type":"SCALAR"
		},
		{
			"bufferView":32,
			"componentType":5126,
			"count":5286,
			"max":[
				0.23767833411693573,
				0.2222936749458313,
				0.06876251846551895
			],
			"min":[
				-0.2441716194152832,
				0.00029377639293670654,
				-0.06837936490774155
			],
			"type":"VEC3"
		},
		{
			"bufferView":33,
			"componentType":5126,
			"count":5286,
			"type":"VEC3"
		},
		{
			"bufferView":34,
			"componentType":5126,
			"count":5286,
			"type":"VEC2"
		},
		{
			"bufferView":35,
			"componentType":5126,
			"count":5286,
			"type":"VEC2"
		},
		{
			"bufferView":36,
			"componentType":5126,
			"count":5286,
			"type":"VEC2"
		},
		{
			"bufferView":37,
			"componentType":5123,
			"count":7860,
			"type":"SCALAR"
		},
		{
			"bufferView":38,
			"componentType":5126,
			"count":105142,
			"max":[
				0.2382533997297287,
				0.22269368171691895,
				0.06904161721467972
			],
			"min":[
				-0.2447466254234314,
				-0.00010622292757034302,
				-0.06865842640399933
			],
			"type":"VEC3"
		},
		{
			"bufferView":39,
			"componentType":5126,
			"count":105142,
			"type":"VEC3"
		},
		{
			"bufferView":40,
			"componentType":5126,
			"count":105142,
			"type":"VEC2"
		},
		{
			"bufferView":41,
			"componentType":5126,
			"count":105142,
			"type":"VEC2"
		},
		{
			"bufferView":42,
			"componentType":5126,
			"count":105142,
			"type":"VEC2"
		},
		{
			"bufferView":43,
			"componentType":5125,
			"count":186939,
			"type":"SCALAR"
		},
		{
			"bufferView":44,
			"componentType":5126,
			"count":3612,
			"max":[
				-0.10575223714113235,
				0.2649708390235901,
				0.049479953944683075
			],
			"min":[
				-0.17099764943122864,
				0.22691279649734497,
				-0.051046304404735565
			],
			"type":"VEC3"
		},
		{
			"bufferView":45,
			"componentType":5126,
			"count":3612,
			"type":"VEC3"
		},
		{
			"bufferView":46,
			"componentType":5126,
			"count":3612,
			"type":"VEC2"
		},
		{
			"bufferView":47,
			"componentType":5123,
			"count":15216,
			"type":"SCALAR"
		}
	],
	"bufferViews":[
		{
			"buffer":0,
			"byteLength":7188,
			"byteOffset":0,
			"target":34962
		},
		{
			"buffer":0,
			"byteLength":7188,
			"byteOffset":7188,
			"target":34962
		},
		{
			"buffer":0,
			"byteLength":4792,
			"byteOffset":14376,
			"target":34962
		},
		{
			"buffer":0,
			"byteLength":2166,
			"byteOffset":19168,
			"target":34963
		},
		{
			"buffer":0,
			"byteLength":463512,
			"byteOffset":21336,
			"target":34962
		},
		{
			"buffer":0,
			"byteLength":463512,
			"byteOffset":484848,
			"target":34962
		},
		{
			"buffer":0,
			"byteLength":309008,
			"byteOffset":948360,
			"target":34962
		},
		{
			"buffer":0,
			"byteLength":152736,
			"byteOffset":1257368,
			"target":34963
		},
		{
			"buffer":0,
			"byteLength":34716,
			"byteOffset":1410104,
			"target":34962
		},
		{
			"buffer":0,
			"byteLength":34716,
			"byteOffset":1444820,
			"target":34962
		},
		{
			"buffer":0,
			"byteLength":23144,
			"byteOffset":1479536,
			"target":34962
		},
		{
			"buffer":0,
			"byteLength":11562,
			"byteOffset":1502680,
			"target":34963
		},
		{
			"buffer":0,
			"byteLength":43620,
			"byteOffset":1514244,
			"target":34962
		},
		{
			"buffer":0,
			"byteLength":43620,
			"byteOffset":1557864,
			"target":34962
		},
		{
			"buffer":0,
			"byteLength":29080,
			"byteOffset":1601484,
			"target":34962
		},
		{
			"buffer":0,
			"byteLength":11952,
			"byteOffset":1630564,
			"target":34963
		},
		{
			"buffer":0,
			"byteLength":16800,
			"byteOffset":1642516,
			"target":34962
		},
		{
			"buffer":0,
			"byteLength":16800,
			"byteOffset":1659316,
			"target":34962
		},
		{
			"buffer":0,
			"byteLength":11200,
			"byteOffset":1676116,
			"target":34962
		},
		{
			"buffer":0,
			"byteLength":5004,
			"byteOffset":1687316,
			"target":34963
		},
		{
			"buffer":0,
			"byteLength":102528,
			"byteOffset":1692320,
			"target":34962
		},
		{
			"buffer":0,
			"byteLength":102528,
			"byteOffset":1794848,
			"target":34962
		},
		{
			"buffer":0,
			"byteLength":68352,
			"byteOffset":1897376,
			"target":34962
		},
		{
			"buffer":0,
			"byteLength":25632,
			"byteOffset":1965728,
			"target":34963
		},
		{
			"buffer":0,
			"byteLength":7488,
			"byteOffset":1991360,
			"target":34962
		},
		{
			"buffer":0,
			"byteLength":7488,
			"byteOffset":1998848,
			"target":34962
		},
		{
			"buffer":0,
			"byteLength":4992,
			"byteOffset":2006336,
			"target":34962
		},
		{
			"buffer":0,
			"byteLength":1872,
			"byteOffset":2011328,
			"target":34963
		},
		{
			"buffer":0,
			"byteLength":252864,
			"byteOffset":2013200,
			"target":34962
		},
		{
			"buffer":0,
			"byteLength":252864,
			"byteOffset":2266064,
			"target":34962
		},
		{
			"buffer":0,
			"byteLength":168576,
			"byteOffset":2518928,
			"target":34962
		},
		{
			"buffer":0,
			"byteLength":65088,
			"byteOffset":2687504,
			"target":34963
		},
		{
			"buffer":0,
			"byteLength":63432,
			"byteOffset":2752592,
			"target":34962
		},
		{
			"buffer":0,
			"byteLength":63432,
			"byteOffset":2816024,
			"target":34962
		},
		{
			"buffer":0,
			"byteLength":42288,
			"byteOffset":2879456,
			"target":34962
		},
		{
			"buffer":0,
			"byteLength":42288,
			"byteOffset":2921744,
			"target":34962
		},
		{
			"buffer":0,
			"byteLength":42288,
			"byteOffset":2964032,
			"target":34962
		},
		{
			"buffer":0,
			"byteLength":15720,
			"byteOffset":3006320,
			"target":34963
		},
		{
			"buffer":0,
			"byteLength":1261704,
			"byteOffset":3022040,
			"target":34962
		},
		{
			"buffer":0,
			"byteLength":1261704,
			"byteOffset":4283744,
			"target":34962
		},
		{
			"buffer":0,
			"byteLength":841136,
			"byteOffset":5545448,
			"target":34962
		},
		{
			"buffer":0,
			"byteLength":841136,
			"byteOffset":6386584,
			"target":34962
		},
		{
			"buffer":0,
			"byteLength":841136,
			"byteOffset":7227720,
			"target":34962
		},
		{
			"buffer":0,
			"byteLength":747756,
			"byteOffset":8068856,
			"target":34963
		},
		{
			"buffer":0,
			"byteLength":43344,
			"byteOffset":8816612,
			"target":34962
		},
		{
			"buffer":0,
			"byteLength":43344,
			"byteOffset":8859956,
			"target":34962
		},
		{
			"buffer":0,
			"byteLength":28896,
			"byteOffset":8903300,
			"target":34962
		},
		{
			"buffer":0,
			"byteLength":30432,
			"byteOffset":8932196,
			"target":34963
		}
	],
	"samplers":[
		{
			"magFilter":9729,
			"minFilter":9987
		}
	],
	"buffers":[
		{
			"byteLength":8962628,
			"uri":"SensiaParis_GLTF.bin"
		}
	]
}
